<svg width="72" height="72" viewBox="0 0 72 72" fill="none" xmlns="http://www.w3.org/2000/svg">
<g clip-path="url(#clip0_64_206)">
<path d="M0 0H72V72H0V0Z" fill="#CA1517"/>
<path d="M26.1784 40.9364C25.5407 40.9802 24.868 40.9172 24.2877 41.2307C23.7776 41.2621 23.2642 41.2433 22.7604 41.3249C22.432 41.5537 22.4381 41.9896 22.3074 42.3251C22.8144 42.3157 23.3216 42.2999 23.8253 42.281L23.6306 42.6636L24.0453 42.4849L24.0417 42.8987L24.4499 42.9272L24.2841 43.4535L24.6157 43.4787C24.3383 45.3128 25.4543 47.2943 27.4471 47.5013C27.7659 48.9466 27.6511 50.5295 26.7105 51.7365C26.465 51.7867 25.9804 51.8902 25.7381 51.9404C25.8241 52.0627 25.9995 52.3012 26.0856 52.4203C26.4969 52.4047 26.9082 52.3826 27.3196 52.3638C27.7691 50.5924 28.6235 48.9591 29.3377 47.2849C30.374 48.5986 31.0693 50.2414 30.8366 51.9344C30.5528 52.1162 30.2719 52.3043 29.9945 52.4924C30.7757 53.0818 31.5444 52.5329 32.2681 52.141C32.7496 50.956 33.6199 49.9433 33.8622 48.6673C34.0599 47.9462 34.3948 47.2721 34.7679 46.6232C34.7424 47.5919 35.4405 48.3756 35.4596 49.3318C35.5106 50.4072 36.1324 51.8368 34.908 52.4984C35.3927 52.6457 35.8932 52.699 36.397 52.6081C36.2344 51.9403 36.1071 51.2569 36.1326 50.5672C36.2315 49.2316 35.9698 47.8583 36.5119 46.5823C36.971 46.7516 37.4333 46.9243 37.9084 47.0466C37.6119 46.6798 37.2389 46.3849 36.8626 46.0996C36.8372 45.5008 36.9616 44.8517 36.6459 44.3062C36.2697 43.6541 35.6669 43.1558 35.3513 42.4692C35.1567 42.0522 34.8858 41.5946 34.3629 41.5696C33.5435 41.3187 33.2245 42.2999 32.7941 42.7576C32.5492 42.2978 32.3537 41.8133 32.2107 41.3124C31.6272 41.234 30.9897 41.077 30.4349 41.356C29.6186 42.3404 28.6588 43.1936 27.817 44.1561C27.428 44.1525 27.0388 44.1402 26.6498 44.1308C26.4553 43.0712 27.023 41.811 26.1781 40.9363L26.1784 40.9364ZM32.7528 47.5358C32.7082 49.0344 32.8297 50.8715 31.4236 51.8559C31.2227 50.4671 31.4586 49.0623 31.4969 47.6671C31.9145 47.6295 32.3351 47.5828 32.7528 47.5358H32.7528Z" fill="#CA1517"/>
<path d="M53.0367 59.0336H53.6207V59.9574H53.0221C52.8321 59.9574 52.7876 59.8549 52.7876 59.6489V59.3261C52.7872 59.1353 52.832 59.0336 53.0367 59.0336ZM56 56.7272C56 55.5072 55.4895 54.6563 53.9995 54.6563H50.7585V56.888C50.9335 56.7555 51.2548 56.7116 51.5329 56.7116H53.4013C53.5909 56.7116 53.6203 56.7715 53.6203 56.9766V57.3151H52.3937C50.9196 57.3151 50.4083 58.1655 50.4083 59.37V59.8992C50.4083 61.1467 50.9331 61.9996 52.3937 61.9996H56V56.7272ZM48.0534 61.9996L49.9377 54.6563H47.3549L46.7123 59.3847L46.0399 54.6563H43.3404L45.2084 61.9996H48.0534ZM39.6399 59.0336H40.2239V59.9574H39.6257C39.4352 59.9574 39.3924 59.8549 39.3924 59.6489V59.3261C39.3924 59.1353 39.4352 59.0336 39.6399 59.0336ZM42.6032 56.7272C42.6032 55.5072 42.0923 54.6563 40.6047 54.6563H37.3634V56.888C37.5371 56.7555 37.8596 56.7116 38.1361 56.7116H40.0057C40.1949 56.7116 40.2243 56.7715 40.2243 56.9766V57.3151H38.9977C37.5236 57.3151 37.0131 58.1655 37.0131 59.37V59.8992C37.0131 61.1467 37.5371 61.9996 38.9977 61.9996H42.6036L42.6032 56.7272ZM33.2217 61.9996H35.6014V51.719H33.2217V61.9996ZM28.3631 54.6563V51.719H25.9838V62H28.3631V56.7555H28.9911C29.166 56.7555 29.1941 56.8302 29.1941 57.0353V62H31.5751V56.7555C31.5751 55.5228 31.0927 54.6563 29.5746 54.6563H28.3631ZM21.7508 54.128H24.1297V51.719H21.7508V54.128ZM21.7508 61.9996H24.1297V54.6568H21.7508V61.9996ZM17.3432 59.6937H16.4229C16.292 59.6937 16.1464 59.6789 16 59.6198V61.9996H18.0878C19.5623 61.9996 20.0585 61.1467 20.0585 59.9135V51.719H17.5622V59.4151C17.5622 59.6198 17.5026 59.6937 17.3432 59.6937Z" fill="white"/>
<path d="M53.8308 27.8426C53.8308 37.6969 45.8799 45.6853 36.072 45.6853C26.264 45.6853 18.3131 37.6969 18.3131 27.8426C18.3131 17.9884 26.264 10 36.072 10C45.8799 10 53.8308 17.9884 53.8308 27.8426Z" fill="#CA1517"/>
<path fill-rule="evenodd" clip-rule="evenodd" d="M53.8308 27.8426C53.8308 37.6968 45.88 45.6853 36.072 45.6853C26.2639 45.6853 18.3131 37.6968 18.3131 27.8426C18.3131 17.9884 26.2639 10 36.072 10C45.88 10 53.8308 17.9884 53.8308 27.8426ZM37.7436 34.421L37.9958 15.7673H34.5652L34.8174 34.421H37.7436ZM34.6787 41.2514C35.1243 41.6991 35.6583 41.923 36.2805 41.923C36.7009 41.923 37.0793 41.8216 37.4157 41.6189C37.7604 41.4077 38.0337 41.1289 38.2355 40.7825C38.4457 40.4361 38.5508 40.056 38.5508 39.642C38.5508 39.0168 38.328 38.4804 37.8823 38.0326C37.4367 37.5849 36.9027 37.361 36.2805 37.361C35.6583 37.361 35.1243 37.5849 34.6787 38.0326C34.233 38.4804 34.0102 39.0168 34.0102 39.642C34.0102 40.2672 34.233 40.8036 34.6787 41.2514Z" fill="white"/>
</g>
<defs>
<clipPath id="clip0_64_206">
<rect width="72" height="72" fill="white"/>
</clipPath>
</defs>
</svg>
