<svg width="512" height="512" viewBox="0 0 512 512" fill="none" xmlns="http://www.w3.org/2000/svg">
<g clip-path="url(#clip0_64_271)">
<path d="M0 0H512V512H0V0Z" fill="#CA1517"/>
<path d="M186.158 291.103C181.623 291.415 176.839 290.967 172.713 293.196C169.085 293.419 165.434 293.286 161.852 293.866C159.516 295.493 159.56 298.593 158.63 300.978C162.235 300.911 165.842 300.799 169.425 300.665L168.04 303.385L170.989 302.115L170.963 305.057L173.866 305.26L172.687 309.002L175.045 309.182C173.072 322.224 181.008 336.315 195.179 337.787C197.447 348.064 196.63 359.32 189.941 367.904C188.196 368.261 184.75 368.997 183.026 369.354C183.638 370.223 184.885 371.919 185.497 372.766C188.422 372.655 191.347 372.499 194.272 372.365C197.469 359.768 203.545 348.153 208.624 336.248C215.993 345.59 220.937 357.272 219.282 369.311C217.264 370.604 215.267 371.941 213.294 373.279C218.849 377.47 224.315 373.567 229.462 370.781C232.886 362.354 239.075 355.152 240.798 346.078C242.204 340.951 244.585 336.157 247.238 331.542C247.057 338.431 252.021 344.004 252.157 350.804C252.52 358.451 256.941 368.617 248.234 373.322C251.681 374.369 255.241 374.749 258.823 374.102C257.667 369.353 256.762 364.494 256.943 359.589C257.646 350.091 255.785 340.325 259.64 331.252C262.905 332.456 266.193 333.684 269.571 334.553C267.462 331.945 264.81 329.848 262.134 327.819C261.953 323.561 262.838 318.946 260.593 315.066C257.918 310.429 253.631 306.886 251.387 302.003C250.003 299.038 248.077 295.784 244.359 295.606C238.531 293.822 236.263 300.799 233.202 304.054C231.461 300.784 230.07 297.339 229.054 293.777C224.904 293.219 220.371 292.103 216.426 294.087C210.621 301.087 203.796 307.154 197.81 313.999C195.044 313.973 192.276 313.886 189.51 313.819C188.126 306.284 192.164 297.322 186.155 291.102L186.158 291.103ZM232.909 338.032C232.592 348.689 233.455 361.753 223.456 368.753C222.028 358.877 223.706 348.887 223.978 338.966C226.948 338.699 229.938 338.366 232.909 338.032H232.909Z" fill="#CA1517"/>
<path d="M355.739 389.829H359.14V395.177H355.654C354.547 395.177 354.288 394.583 354.288 393.391V391.522C354.285 390.418 354.547 389.829 355.739 389.829ZM373 376.479C373 369.417 370.026 364.492 361.347 364.492H342.469V377.41C343.488 376.643 345.359 376.388 346.979 376.388H357.863C358.967 376.388 359.138 376.735 359.138 377.923V379.882H351.993C343.407 379.882 340.428 384.804 340.428 391.776V394.839C340.428 402.061 343.485 406.998 351.993 406.998H373V376.479ZM326.711 406.998L337.687 364.492H322.642L318.899 391.862L314.982 364.492H299.258L310.139 406.998H326.711ZM277.703 389.829H281.104V395.177H277.62C276.51 395.177 276.261 394.583 276.261 393.391V391.522C276.261 390.418 276.51 389.829 277.703 389.829ZM294.964 376.479C294.964 369.417 291.987 364.492 283.322 364.492H264.442V377.41C265.453 376.643 267.332 376.388 268.943 376.388H279.833C280.935 376.388 281.106 376.735 281.106 377.923V379.882H273.962C265.375 379.882 262.401 384.804 262.401 391.776V394.839C262.401 402.061 265.453 406.998 273.962 406.998H294.966L294.964 376.479ZM240.316 406.998H254.178V347.489H240.316V406.998ZM212.015 364.492V347.489H198.156V407H212.015V376.643H215.673C216.692 376.643 216.856 377.075 216.856 378.262V407H230.725V376.643C230.725 369.507 227.915 364.492 219.072 364.492H212.015ZM173.498 361.433H187.355V347.489H173.498V361.433ZM173.498 406.998H187.355V364.494H173.498V406.998ZM147.824 393.65H142.463C141.701 393.65 140.853 393.564 140 393.222V406.998H152.161C160.75 406.998 163.641 402.061 163.641 394.923V347.489H149.1V392.037C149.1 393.222 148.753 393.65 147.824 393.65Z" fill="white"/>
<path d="M360.364 209.281C360.364 266.322 314.05 312.563 256.919 312.563C199.788 312.563 153.474 266.322 153.474 209.281C153.474 152.241 199.788 106 256.919 106C314.05 106 360.364 152.241 360.364 209.281Z" fill="#CA1517"/>
<path fill-rule="evenodd" clip-rule="evenodd" d="M360.364 209.281C360.364 266.322 314.051 312.563 256.919 312.563C199.787 312.563 153.474 266.322 153.474 209.281C153.474 152.241 199.787 106 256.919 106C314.051 106 360.364 152.241 360.364 209.281ZM266.656 247.36L268.126 139.384H248.142L249.611 247.36H266.656ZM248.803 286.897C251.399 289.489 254.509 290.785 258.134 290.785C260.583 290.785 262.787 290.198 264.746 289.025C266.754 287.802 268.346 286.188 269.522 284.183C270.746 282.178 271.358 279.978 271.358 277.582C271.358 273.963 270.061 270.858 267.465 268.266C264.869 265.674 261.758 264.378 258.134 264.378C254.509 264.378 251.399 265.674 248.803 268.266C246.207 270.858 244.909 273.963 244.909 277.582C244.909 281.2 246.207 284.306 248.803 286.897Z" fill="white"/>
</g>
<defs>
<clipPath id="clip0_64_271">
<rect width="512" height="512" fill="white"/>
</clipPath>
</defs>
</svg>
