<svg width="150" height="150" viewBox="0 0 150 150" fill="none" xmlns="http://www.w3.org/2000/svg">
<g clip-path="url(#clip0_64_180)">
<path d="M0 0H150V150H0V0Z" fill="#CA1517"/>
<path d="M54.5383 85.284C53.2098 85.3754 51.8083 85.2441 50.5994 85.8972C49.5366 85.9626 48.4671 85.9235 47.4175 86.0934C46.7333 86.5701 46.746 87.4783 46.4736 88.1772C47.5299 88.1576 48.5865 88.1247 49.6361 88.0854L49.2303 88.8823L50.0943 88.5102L50.0868 89.3722L50.9373 89.4315L50.5918 90.528L51.2827 90.5805C50.7048 94.4015 53.0297 98.5298 57.1814 98.9609C57.8457 101.972 57.6065 105.27 55.6469 107.784C55.1354 107.889 54.1258 108.105 53.621 108.209C53.8002 108.464 54.1656 108.961 54.3449 109.209C55.2018 109.176 56.0588 109.13 56.9157 109.091C57.8523 105.401 59.6323 101.998 61.1202 98.5101C63.2792 101.247 64.7277 104.67 64.2429 108.197C63.6516 108.575 63.0663 108.967 62.4884 109.359C64.1159 110.587 65.7174 109.443 67.2252 108.627C68.2283 106.158 70.0415 104.048 70.5462 101.39C70.9581 99.8878 71.6558 98.4835 72.433 97.1315C72.3799 99.1497 73.8342 100.782 73.8741 102.774C73.9803 105.015 75.2757 107.993 72.7249 109.371C73.7346 109.678 74.7775 109.79 75.8271 109.6C75.4882 108.209 75.2232 106.785 75.2763 105.348C75.4822 102.566 74.9371 99.7047 76.0664 97.0463C77.0229 97.399 77.9861 97.7589 78.9759 98.0136C78.3581 97.2494 77.581 96.6351 76.7971 96.0408C76.7441 94.7932 77.0034 93.441 76.3456 92.3045C75.5619 90.9459 74.306 89.9079 73.6484 88.4775C73.2432 87.6087 72.6788 86.6554 71.5894 86.6031C69.8822 86.0806 69.2177 88.1247 68.3209 89.0783C67.8108 88.1203 67.4034 87.111 67.1055 86.0673C65.8899 85.9041 64.5618 85.5769 63.406 86.1582C61.7055 88.2091 59.7057 89.9865 57.952 91.9917C57.1416 91.9842 56.3308 91.9587 55.5204 91.9391C55.1151 89.7315 56.2979 87.1061 54.5376 85.2838L54.5383 85.284ZM68.235 99.0327C68.142 102.155 68.3951 105.982 65.4657 108.033C65.0472 105.14 65.5388 102.213 65.6184 99.3064C66.4886 99.2281 67.3647 99.1307 68.235 99.0327H68.235Z" fill="#CA1517"/>
<path d="M109.073 121.124H110.241V122.954H109.044C108.664 122.954 108.575 122.751 108.575 122.343V121.704C108.574 121.326 108.664 121.124 109.073 121.124ZM115 116.556C115 114.139 113.979 112.454 110.999 112.454H104.517V116.874C104.867 116.612 105.51 116.525 106.066 116.525H109.803C110.182 116.525 110.241 116.644 110.241 117.05V117.72H107.787C104.839 117.72 103.817 119.405 103.817 121.791V122.839C103.817 125.31 104.866 126.999 107.787 126.999H115V116.556ZM99.1068 126.999L102.875 112.454H97.7098L96.4245 121.82L95.0797 112.454H89.6809L93.4168 126.999H99.1068ZM82.2799 121.124H83.4477V122.954H82.2513C81.8705 122.954 81.7848 122.751 81.7848 122.343V121.704C81.7848 121.326 81.8705 121.124 82.2799 121.124ZM88.2064 116.556C88.2064 114.139 87.1845 112.454 84.2094 112.454H77.7267V116.874C78.0742 116.612 78.7192 116.525 79.2722 116.525H83.0114C83.3898 116.525 83.4485 116.644 83.4485 117.05V117.72H80.9954C78.0473 117.72 77.0262 119.405 77.0262 121.791V122.839C77.0262 125.31 78.0742 126.999 80.9954 126.999H88.2072L88.2064 116.556ZM69.4433 126.999H74.2028V106.636H69.4433V126.999ZM59.7262 112.454V106.636H54.9676V127H59.7262V116.612H60.9822C61.332 116.612 61.3883 116.76 61.3883 117.166V127H66.1502V116.612C66.1502 114.17 65.1854 112.454 62.1492 112.454H59.7262ZM46.5015 111.407H51.2593V106.636H46.5015V111.407ZM46.5015 126.999H51.2593V112.455H46.5015V126.999ZM37.6864 122.432H35.8457C35.5839 122.432 35.2928 122.402 35 122.285V126.999H39.1755C42.1245 126.999 43.117 125.31 43.117 122.867V106.636H38.1243V121.88C38.1243 122.285 38.0053 122.432 37.6864 122.432Z" fill="white"/>
<path d="M110.662 59.3422C110.662 78.8611 94.7598 94.6843 75.1439 94.6843C55.5281 94.6843 39.6263 78.8611 39.6263 59.3422C39.6263 39.8232 55.5281 24 75.1439 24C94.7598 24 110.662 39.8232 110.662 59.3422Z" fill="#CA1517"/>
<path fill-rule="evenodd" clip-rule="evenodd" d="M110.662 59.3422C110.662 78.8611 94.76 94.6843 75.1439 94.6843C55.5279 94.6843 39.6263 78.8611 39.6263 59.3422C39.6263 39.8233 55.5279 24 75.1439 24C94.76 24 110.662 39.8233 110.662 59.3422ZM78.4872 72.3724L78.9917 35.4237H72.1303L72.6348 72.3724H78.4872ZM72.3574 85.9018C73.2487 86.7887 74.3165 87.2321 75.561 87.2321C76.4019 87.2321 77.1586 87.0313 77.8313 86.6297C78.5208 86.2114 79.0674 85.6591 79.471 84.9731C79.8914 84.287 80.1016 83.5339 80.1016 82.714C80.1016 81.4756 79.656 80.413 78.7647 79.5261C77.8734 78.6392 76.8055 78.1958 75.561 78.1958C74.3165 78.1958 73.2487 78.6392 72.3574 79.5261C71.466 80.413 71.0204 81.4756 71.0204 82.714C71.0204 83.9523 71.466 85.0149 72.3574 85.9018Z" fill="white"/>
</g>
<defs>
<clipPath id="clip0_64_180">
<rect width="150" height="150" fill="white"/>
</clipPath>
</defs>
</svg>
