<svg width="48" height="48" viewBox="0 0 48 48" fill="none" xmlns="http://www.w3.org/2000/svg">
<g clip-path="url(#clip0_64_193)">
<path d="M0 0H48V48H0V0Z" fill="#CA1517"/>
<path d="M17.4523 27.2908C17.0271 27.3201 16.5787 27.2781 16.1918 27.487C15.8517 27.508 15.5095 27.4955 15.1736 27.5498C14.9547 27.7024 14.9587 27.993 14.8716 28.2166C15.2096 28.2104 15.5477 28.1998 15.8836 28.1873L15.7537 28.4423L16.0302 28.3232L16.0278 28.5991L16.3 28.618L16.1894 28.9689L16.4105 28.9857C16.2255 30.2084 16.9695 31.5295 18.2981 31.6674C18.5106 32.631 18.4341 33.6862 17.807 34.4909C17.6433 34.5244 17.3203 34.5934 17.1587 34.6269C17.2161 34.7084 17.333 34.8674 17.3904 34.9468C17.6646 34.9364 17.9388 34.9217 18.2131 34.9091C18.5128 33.7282 19.0824 32.6393 19.5585 31.5232C20.2494 32.399 20.7129 33.4942 20.5577 34.6228C20.3685 34.7441 20.1812 34.8694 19.9963 34.9948C20.5171 35.3878 21.0296 35.0218 21.5121 34.7606C21.8331 33.9706 22.4133 33.2955 22.5748 32.4448C22.7066 31.9641 22.9299 31.5147 23.1786 31.082C23.1616 31.7279 23.627 32.2503 23.6397 32.8878C23.6737 33.6047 24.0883 34.5578 23.272 34.9988C23.5951 35.097 23.9288 35.1326 24.2647 35.072C24.1562 34.6268 24.0714 34.1712 24.0884 33.7114C24.1543 32.821 23.9799 31.9054 24.3413 31.0548C24.6474 31.1676 24.9556 31.2828 25.2723 31.3643C25.0746 31.1198 24.8259 30.9232 24.5751 30.733C24.5581 30.3338 24.6411 29.9011 24.4306 29.5374C24.1798 29.1027 23.7779 28.7705 23.5675 28.3127C23.4378 28.0347 23.2572 27.7297 22.9086 27.713C22.3623 27.5457 22.1497 28.1998 21.8627 28.505C21.6995 28.1984 21.5691 27.8755 21.4738 27.5415C21.0848 27.4893 20.6598 27.3846 20.2899 27.5706C19.7458 28.2269 19.1059 28.7956 18.5447 29.4373C18.2853 29.4349 18.0259 29.4267 17.7665 29.4205C17.6369 28.714 18.0153 27.8739 17.452 27.2908L17.4523 27.2908ZM21.8352 31.6904C21.8055 32.6895 21.8864 33.9143 20.9491 34.5705C20.8151 33.6446 20.9724 32.7081 20.9979 31.778C21.2764 31.7529 21.5567 31.7218 21.8352 31.6904H21.8352Z" fill="#CA1517"/>
<path d="M34.2961 37.2886H34.6319V37.8216H34.2877C34.1784 37.8216 34.1529 37.7624 34.1529 37.6436V37.4573C34.1526 37.3473 34.1784 37.2886 34.2961 37.2886ZM36 35.958C36 35.2541 35.7064 34.7633 34.8497 34.7633H32.9862V36.0508C33.0868 35.9743 33.2715 35.949 33.4314 35.949H34.5057C34.6148 35.949 34.6317 35.9836 34.6317 36.1019V36.2972H33.9264C33.0788 36.2972 32.7848 36.7878 32.7848 37.4827V37.788C32.7848 38.5077 33.0865 38.9998 33.9264 38.9998H36V35.958ZM31.4307 38.9998L32.5142 34.7633H31.0291L30.6596 37.4912L30.2729 34.7633H28.7207L29.7948 38.9998H31.4307ZM26.593 37.2886H26.9287V37.8216H26.5848C26.4753 37.8216 26.4506 37.7624 26.4506 37.6436V37.4573C26.4506 37.3473 26.4753 37.2886 26.593 37.2886ZM28.2968 35.958C28.2968 35.2541 28.003 34.7633 27.1477 34.7633H25.2839V36.0508C25.3838 35.9743 25.5693 35.949 25.7283 35.949H26.8033C26.9121 35.949 26.929 35.9836 26.929 36.1019V36.2972H26.2237C25.3761 36.2972 25.0825 36.7878 25.0825 37.4827V37.788C25.0825 38.5077 25.3838 38.9998 26.2237 38.9998H28.2971L28.2968 35.958ZM22.9025 38.9998H24.2708V33.0687H22.9025V38.9998ZM20.1088 34.7633V33.0687H18.7407V39H20.1088V35.9743H20.4699C20.5705 35.9743 20.5866 36.0174 20.5866 36.1358V39H21.9557V35.9743C21.9557 35.2631 21.6783 34.7633 20.8054 34.7633H20.1088ZM16.3067 34.4584H17.6746V33.0687H16.3067V34.4584ZM16.3067 38.9998H17.6746V34.7635H16.3067V38.9998ZM13.7723 37.6694H13.2431C13.1679 37.6694 13.0842 37.6609 13 37.6268V38.9998H14.2005C15.0483 38.9998 15.3336 38.5077 15.3336 37.7963V33.0687H13.8982V37.5087C13.8982 37.6268 13.864 37.6694 13.7723 37.6694Z" fill="white"/>
<path d="M34.7527 19.2938C34.7527 24.979 30.1809 29.5877 24.5414 29.5877C18.9018 29.5877 14.3301 24.979 14.3301 19.2938C14.3301 13.6087 18.9018 9 24.5414 9C30.1809 9 34.7527 13.6087 34.7527 19.2938Z" fill="#CA1517"/>
<path fill-rule="evenodd" clip-rule="evenodd" d="M34.7527 19.2938C34.7527 24.979 30.181 29.5877 24.5414 29.5877C18.9018 29.5877 14.3301 24.979 14.3301 19.2938C14.3301 13.6087 18.9018 9 24.5414 9C30.181 9 34.7527 13.6087 34.7527 19.2938ZM25.5026 23.089L25.6476 12.3273H23.675L23.82 23.089H25.5026ZM23.7402 27.0296C23.9965 27.288 24.3035 27.4171 24.6613 27.4171C24.903 27.4171 25.1206 27.3586 25.314 27.2417C25.5122 27.1198 25.6694 26.959 25.7854 26.7591C25.9063 26.5593 25.9667 26.34 25.9667 26.1012C25.9667 25.7405 25.8386 25.431 25.5823 25.1727C25.3261 24.9143 25.0191 24.7852 24.6613 24.7852C24.3035 24.7852 23.9965 24.9143 23.7402 25.1727C23.484 25.431 23.3559 25.7405 23.3559 26.1012C23.3559 26.4618 23.484 26.7713 23.7402 27.0296Z" fill="white"/>
</g>
<defs>
<clipPath id="clip0_64_193">
<rect width="48" height="48" fill="white"/>
</clipPath>
</defs>
</svg>
