<svg width="256" height="256" viewBox="0 0 256 256" fill="none" xmlns="http://www.w3.org/2000/svg">
<g clip-path="url(#clip0_64_245)">
<path d="M0 0H256V256H0V0Z" fill="#CA1517"/>
<path d="M93.0788 145.551C90.8114 145.707 88.4196 145.483 86.3563 146.598C84.5425 146.71 82.7172 146.643 80.9259 146.933C79.7582 147.746 79.7798 149.296 79.3151 150.489C81.1177 150.456 82.9211 150.4 84.7123 150.332L84.0198 151.693L85.4944 151.057L85.4816 152.529L86.9331 152.63L86.3434 154.501L87.5226 154.591C86.5362 161.112 90.5041 168.158 97.5896 168.893C98.7233 174.032 98.3151 179.66 94.9707 183.952C94.0978 184.13 92.3748 184.498 91.5132 184.677C91.8191 185.112 92.4426 185.96 92.7487 186.383C94.2112 186.328 95.6737 186.249 97.1362 186.182C98.7347 179.884 101.773 174.077 104.312 168.124C107.997 172.795 110.469 178.636 109.641 184.656C108.632 185.302 107.633 185.971 106.647 186.64C109.425 188.735 112.158 186.784 114.731 185.39C116.443 181.177 119.538 177.576 120.399 173.039C121.102 170.475 122.293 168.079 123.619 165.771C123.528 169.216 126.01 172.002 126.079 175.402C126.26 179.225 128.471 184.309 124.117 186.661C125.841 187.185 127.62 187.374 129.412 187.051C128.833 184.677 128.381 182.247 128.472 179.794C128.823 175.046 127.893 170.163 129.82 165.626C131.453 166.228 133.096 166.842 134.786 167.277C133.731 165.972 132.405 164.924 131.067 163.91C130.977 161.781 131.419 159.473 130.297 157.533C128.959 155.215 126.816 153.443 125.693 151.002C125.002 149.519 124.039 147.892 122.179 147.803C119.266 146.911 118.132 150.4 116.601 152.027C115.73 150.392 115.035 148.67 114.527 146.888C112.452 146.61 110.186 146.051 108.213 147.043C105.311 150.544 101.898 153.577 98.9048 156.999C97.5218 156.987 96.138 156.943 94.7548 156.909C94.0632 153.142 96.0818 148.661 93.0775 145.551L93.0788 145.551ZM116.455 169.016C116.296 174.344 116.728 180.876 111.728 184.377C111.014 179.438 111.853 174.444 111.989 169.483C113.474 169.349 114.969 169.183 116.454 169.016H116.455Z" fill="#CA1517"/>
<path d="M183.444 202.473H185.327V205.44H183.396C182.783 205.44 182.64 205.111 182.64 204.449V203.413C182.639 202.8 182.783 202.473 183.444 202.473ZM193 195.066C193 191.148 191.354 188.416 186.548 188.416H176.096V195.583C176.66 195.157 177.697 195.016 178.594 195.016H184.619C185.231 195.016 185.325 195.209 185.325 195.867V196.954H181.37C176.616 196.954 174.967 199.685 174.967 203.554V205.253C174.967 209.26 176.659 211.999 181.37 211.999H193V195.066ZM167.372 211.999L173.449 188.416H165.12L163.047 203.601L160.879 188.416H152.173L158.197 211.999H167.372ZM140.239 202.473H142.122V205.44H140.193C139.579 205.44 139.441 205.111 139.441 204.449V203.413C139.441 202.8 139.579 202.473 140.239 202.473ZM149.795 195.066C149.795 191.148 148.148 188.416 143.35 188.416H132.897V195.583C133.457 195.157 134.497 195.016 135.389 195.016H141.418C142.029 195.016 142.123 195.209 142.123 195.867V196.954H138.168C133.414 196.954 131.767 199.685 131.767 203.554V205.253C131.767 209.26 133.457 211.999 138.168 211.999H149.797L149.795 195.066ZM119.54 211.999H127.215V178.982H119.54V211.999ZM103.871 188.416V178.982H96.1977V212H103.871V195.157H105.896C106.46 195.157 106.551 195.397 106.551 196.056V212H114.23V195.157C114.23 191.198 112.674 188.416 107.778 188.416H103.871ZM82.5462 186.719H90.2182V178.982H82.5462V186.719ZM82.5462 211.999H90.2182V188.417H82.5462V211.999ZM68.3318 204.593H65.3637C64.9416 204.593 64.4721 204.546 64 204.356V211.999H70.7331C75.4883 211.999 77.0887 209.26 77.0887 205.299V178.982H69.038V203.698C69.038 204.356 68.846 204.593 68.3318 204.593Z" fill="white"/>
<path d="M186.004 102.302C186.004 133.95 160.363 159.605 128.732 159.605C97.1015 159.605 71.4599 133.95 71.4599 102.302C71.4599 70.6551 97.1015 45 128.732 45C160.363 45 186.004 70.6551 186.004 102.302Z" fill="#CA1517"/>
<path fill-rule="evenodd" clip-rule="evenodd" d="M186.004 102.302C186.004 133.949 160.363 159.605 128.732 159.605C97.1012 159.605 71.4599 133.949 71.4599 102.302C71.4599 70.6552 97.1012 45 128.732 45C160.363 45 186.004 70.6552 186.004 102.302ZM134.123 123.429L134.937 63.522H123.873L124.686 123.429H134.123ZM124.239 145.365C125.676 146.803 127.398 147.522 129.405 147.522C130.761 147.522 131.981 147.196 133.065 146.545C134.177 145.867 135.059 144.972 135.709 143.859C136.387 142.747 136.726 141.526 136.726 140.196C136.726 138.189 136.008 136.466 134.571 135.028C133.133 133.59 131.411 132.871 129.405 132.871C127.398 132.871 125.676 133.59 124.239 135.028C122.801 136.466 122.083 138.189 122.083 140.196C122.083 142.204 122.801 143.927 124.239 145.365Z" fill="white"/>
</g>
<defs>
<clipPath id="clip0_64_245">
<rect width="256" height="256" fill="white"/>
</clipPath>
</defs>
</svg>
