<svg width="96" height="96" viewBox="0 0 96 96" fill="none" xmlns="http://www.w3.org/2000/svg">
<g clip-path="url(#clip0_64_219)">
<path d="M0 0H96V96H0V0Z" fill="#CA1517"/>
<path d="M34.9046 54.5818C34.0543 54.6403 33.1574 54.5563 32.3836 54.9742C31.7034 55.0161 31.019 54.9911 30.3472 55.0998C29.9093 55.4049 29.9175 55.9861 29.7432 56.4334C30.4191 56.4209 31.0954 56.3998 31.7671 56.3747L31.5075 56.8847L32.0604 56.6465L32.0556 57.1982L32.5999 57.2362L32.3788 57.9379L32.821 57.9715C32.4511 60.417 33.939 63.0591 36.5961 63.335C37.0213 65.2621 36.8682 67.3726 35.614 68.982C35.2867 69.0489 34.6406 69.1869 34.3175 69.2538C34.4322 69.4168 34.666 69.7349 34.7808 69.8937C35.3292 69.8728 35.8777 69.8435 36.4261 69.8184C37.0255 67.4565 38.1647 65.2788 39.117 63.0465C40.4987 64.798 41.4258 66.9885 41.1155 69.2458C40.7371 69.4883 40.3625 69.739 39.9926 69.9898C41.0342 70.7757 42.0591 70.0438 43.0242 69.5213C43.6661 67.9413 44.8266 66.591 45.1496 64.8897C45.4132 63.9282 45.8597 63.0295 46.3572 62.1642C46.3232 63.4559 47.2539 64.5008 47.2795 65.7757C47.3475 67.2095 48.1765 69.1157 46.544 69.9978C47.1902 70.1942 47.8576 70.2653 48.5294 70.1441C48.3125 69.2537 48.1429 68.3425 48.1768 67.4229C48.3087 65.6421 47.9598 63.811 48.6825 62.1096C49.2947 62.3354 49.9111 62.5657 50.5446 62.7287C50.1492 62.2396 49.6519 61.8465 49.1502 61.4661C49.1163 60.6677 49.2822 59.8023 48.8612 59.0749C48.3596 58.2054 47.5559 57.5411 47.135 56.6256C46.8757 56.0696 46.5145 55.4595 45.8173 55.426C44.7246 55.0916 44.2994 56.3998 43.7254 57.0101C43.399 56.397 43.1382 55.7511 42.9476 55.0831C42.1696 54.9786 41.3196 54.7692 40.5799 55.1413C39.4915 56.4539 38.2117 57.5914 37.0893 58.8747C36.5707 58.8699 36.0518 58.8536 35.5331 58.841C35.2737 57.4282 36.0307 55.7479 34.9041 54.5817L34.9046 54.5818ZM43.6705 63.381C43.6109 65.3791 43.7729 67.8287 41.8981 69.1412C41.6303 67.2894 41.9449 65.4163 41.9958 63.5561C42.5527 63.506 43.1135 63.4437 43.6704 63.381H43.6705Z" fill="#CA1517"/>
<path d="M69.2959 77.292H70.0258V78.4468H69.2776C69.0401 78.4468 68.9845 78.3186 68.9845 78.0612V77.6576C68.984 77.4191 69.0401 77.292 69.2959 77.292ZM73 74.409C73 72.884 72.3618 71.8204 70.4994 71.8204H66.4482V74.61C66.6669 74.4444 67.0685 74.3895 67.4161 74.3895H69.7516C69.9886 74.3895 70.0253 74.4644 70.0253 74.7208V75.1439H68.4921C66.6495 75.1439 66.0103 76.2069 66.0103 77.7125V78.374C66.0103 79.9334 66.6663 80.9995 68.4921 80.9995H73V74.409ZM63.0668 80.9995L65.4221 71.8204H62.1936L61.3903 77.7309L60.5498 71.8204H57.1755L59.5105 80.9995H63.0668ZM52.5499 77.292H53.2798V78.4468H52.5321C52.294 78.4468 52.2405 78.3186 52.2405 78.0612V77.6576C52.2405 77.4191 52.2941 77.292 52.5499 77.292ZM56.254 74.409C56.254 72.884 55.6153 71.8204 53.7559 71.8204H49.7042V74.61C49.9214 74.4444 50.3245 74.3895 50.6701 74.3895H53.0071C53.2436 74.3895 53.2803 74.4644 53.2803 74.7208V75.1439H51.7471C49.9045 75.1439 49.2664 76.2069 49.2664 77.7125V78.374C49.2664 79.9334 49.9214 80.9995 51.7471 80.9995H56.2545L56.254 74.409ZM44.5271 80.9995H47.5018V68.1488H44.5271V80.9995ZM38.4539 71.8204V68.1488H35.4797V81H38.4539V74.4444H39.2388C39.4575 74.4444 39.4927 74.5377 39.4927 74.7941V81H42.4689V74.4444C42.4689 72.9035 41.8659 71.8204 39.9682 71.8204H38.4539ZM30.1884 71.1599H33.1621V68.1488H30.1884V71.1599ZM30.1884 80.9995H33.1621V71.8209H30.1884V80.9995ZM24.679 78.1171H23.5286C23.365 78.1171 23.183 78.0986 23 78.0248V80.9995H25.6097C27.4528 80.9995 28.0731 79.9334 28.0731 78.3919V68.1488H24.9527V77.7689C24.9527 78.0248 24.8783 78.1171 24.679 78.1171Z" fill="white"/>
<path d="M70.2885 38.3033C70.2885 50.6211 60.3499 60.6066 48.09 60.6066C35.83 60.6066 25.8914 50.6211 25.8914 38.3033C25.8914 25.9855 35.83 16 48.09 16C60.3499 16 70.2885 25.9855 70.2885 38.3033Z" fill="#CA1517"/>
<path fill-rule="evenodd" clip-rule="evenodd" d="M70.2885 38.3033C70.2885 50.6211 60.35 60.6066 48.09 60.6066C35.8299 60.6066 25.8914 50.6211 25.8914 38.3033C25.8914 25.9856 35.8299 16 48.09 16C60.35 16 70.2885 25.9856 70.2885 38.3033ZM50.1795 46.5262L50.4948 23.2091H46.2065L46.5218 46.5262H50.1795ZM46.3483 55.0642C46.9054 55.6239 47.5728 55.9038 48.3506 55.9038C48.8762 55.9038 49.3491 55.7771 49.7696 55.5236C50.2005 55.2596 50.5421 54.9111 50.7944 54.4781C51.0571 54.0452 51.1885 53.57 51.1885 53.0525C51.1885 52.271 50.91 51.6005 50.3529 51.0408C49.7958 50.4811 49.1284 50.2012 48.3506 50.2012C47.5728 50.2012 46.9054 50.4811 46.3483 51.0408C45.7913 51.6005 45.5127 52.271 45.5127 53.0525C45.5127 53.834 45.7913 54.5045 46.3483 55.0642Z" fill="white"/>
</g>
<defs>
<clipPath id="clip0_64_219">
<rect width="96" height="96" fill="white"/>
</clipPath>
</defs>
</svg>
