<svg width="128" height="128" viewBox="0 0 128 128" fill="none" xmlns="http://www.w3.org/2000/svg">
<g clip-path="url(#clip0_64_167)">
<path d="M0 0H128V128H0V0Z" fill="#CA1517"/>
<path d="M46.5394 72.7756C45.4057 72.8537 44.2098 72.7417 43.1782 73.2989C42.2713 73.3547 41.3586 73.3214 40.463 73.4663C39.8792 73.8732 39.89 74.6482 39.6576 75.2445C40.5589 75.2278 41.4606 75.1997 42.3562 75.1662L42.01 75.8462L42.7473 75.5287L42.7409 76.2643L43.4666 76.3148L43.1718 77.2505L43.7613 77.2953C43.2682 80.5559 45.2521 84.0787 48.7949 84.4466C49.3617 87.016 49.1576 89.83 47.4854 91.9759C47.049 92.0652 46.1874 92.2492 45.7567 92.3384C45.9096 92.5557 46.2214 92.9798 46.3744 93.1915C47.1057 93.1637 47.8369 93.1246 48.5682 93.0911C49.3674 89.942 50.8863 87.0383 52.156 84.062C53.9983 86.3973 55.2344 89.318 54.8207 92.3277C54.3161 92.651 53.8167 92.9853 53.3235 93.3197C54.7123 94.3675 56.0789 93.3917 57.3656 92.6951C58.2216 90.5883 59.7688 88.788 60.1995 86.5195C60.551 85.2376 61.1464 84.0393 61.8096 82.8855C61.7643 84.6078 63.0053 86.001 63.0393 87.7009C63.13 89.6126 64.2354 92.1543 62.0587 93.3303C62.9203 93.5922 63.8102 93.6871 64.7058 93.5254C64.4167 92.3382 64.1905 91.1234 64.2358 89.8971C64.4116 87.5228 63.9464 85.0813 64.9101 82.8128C65.7263 83.1138 66.5482 83.4209 67.3928 83.6382C66.8657 82.9861 66.2026 82.4619 65.5336 81.9548C65.4884 80.8902 65.7096 79.7363 65.1483 78.7665C64.4795 77.6072 63.4079 76.7214 62.8467 75.5008C62.5009 74.7595 62.0193 73.9459 61.0897 73.9013C59.6329 73.4554 59.0658 75.1997 58.3006 76.0135C57.8653 75.196 57.5177 74.3347 57.2635 73.4441C56.2262 73.3048 55.0929 73.0256 54.1065 73.5217C52.6554 75.2718 50.949 76.7884 49.4525 78.4996C48.761 78.4932 48.069 78.4714 47.3775 78.4547C47.0317 76.5708 48.041 74.3305 46.5388 72.7755L46.5394 72.7756ZM58.2273 84.5079C58.148 87.1721 58.3639 90.4382 55.8642 92.1883C55.5071 89.7191 55.9265 87.2217 55.9945 84.7415C56.737 84.6747 57.4847 84.5915 58.2273 84.5079H58.2273Z" fill="#CA1517"/>
<path d="M87.8514 95.8926H88.6689V97.1718H87.8309C87.5649 97.1718 87.5026 97.0298 87.5026 96.7447V96.2976C87.5021 96.0335 87.5649 95.8926 87.8514 95.8926ZM92 92.6992C92 91.0099 91.2853 89.8319 89.1993 89.8319H84.662V92.9219C84.9069 92.7384 85.3567 92.6776 85.7461 92.6776H88.3618C88.6273 92.6776 88.6684 92.7606 88.6684 93.0446V93.5132H86.9512C84.8875 93.5132 84.1716 94.6907 84.1716 96.3584V97.0912C84.1716 98.8185 84.9063 99.9994 86.9512 99.9994H92V92.6992ZM80.8748 99.9994L83.5128 89.8319H79.8969L78.9972 96.3789L78.0558 89.8319H74.2766L76.8918 99.9994H80.8748ZM69.0959 95.8926H69.9134V97.1718H69.0759C68.8093 97.1718 68.7494 97.0298 68.7494 96.7447V96.2976C68.7494 96.0335 68.8093 95.8926 69.0959 95.8926ZM73.2445 92.6992C73.2445 91.0099 72.5292 89.8319 70.4466 89.8319H65.9087V92.9219C66.1519 92.7384 66.6035 92.6776 66.9905 92.6776H69.608C69.8729 92.6776 69.914 92.7606 69.914 93.0446V93.5132H68.1968C66.1331 93.5132 65.4183 94.6907 65.4183 96.3584V97.0912C65.4183 98.8185 66.1519 99.9994 68.1968 99.9994H73.245L73.2445 92.6992ZM60.1103 99.9994H63.442V85.7648H60.1103V99.9994ZM53.3084 89.8319V85.7648H49.9773V100H53.3084V92.7384H54.1875C54.4324 92.7384 54.4718 92.8418 54.4718 93.1258V100H57.8051V92.7384C57.8051 91.0315 57.1298 89.8319 55.0044 89.8319H53.3084ZM44.0511 89.1002H47.3815V85.7648H44.0511V89.1002ZM44.0511 99.9994H47.3815V89.8324H44.0511V99.9994ZM37.8805 96.8066H36.592C36.4087 96.8066 36.2049 96.7861 36 96.7043V99.9994H38.9229C40.9872 99.9994 41.6819 98.8185 41.6819 97.111V85.7648H38.187V96.4209C38.187 96.7043 38.1037 96.8066 37.8805 96.8066Z" fill="white"/>
<path d="M88.9631 52.7052C88.9631 66.3495 77.8319 77.4104 64.1008 77.4104C50.3696 77.4104 39.2384 66.3495 39.2384 52.7052C39.2384 39.0609 50.3696 28 64.1008 28C77.8319 28 88.9631 39.0609 88.9631 52.7052Z" fill="#CA1517"/>
<path fill-rule="evenodd" clip-rule="evenodd" d="M88.9631 52.7052C88.9631 66.3495 77.832 77.4104 64.1008 77.4104C50.3695 77.4104 39.2384 66.3495 39.2384 52.7052C39.2384 39.0609 50.3695 28 64.1008 28C77.832 28 88.9631 39.0609 88.9631 52.7052ZM66.441 61.8137L66.7942 35.9855H61.9912L62.3444 61.8137H66.441ZM62.1501 71.2712C62.7741 71.8911 63.5216 72.2011 64.3927 72.2011C64.9813 72.2011 65.511 72.0607 65.9819 71.78C66.4646 71.4876 66.8472 71.1015 67.1297 70.6219C67.424 70.1423 67.5711 69.6159 67.5711 69.0428C67.5711 68.1771 67.2592 67.4344 66.6353 66.8144C66.0114 66.1944 65.2638 65.8844 64.3927 65.8844C63.5216 65.8844 62.7741 66.1944 62.1501 66.8144C61.5262 67.4344 61.2143 68.1771 61.2143 69.0428C61.2143 69.9084 61.5262 70.6512 62.1501 71.2712Z" fill="white"/>
</g>
<defs>
<clipPath id="clip0_64_167">
<rect width="128" height="128" fill="white"/>
</clipPath>
</defs>
</svg>
