<svg width="1024" height="1024" viewBox="0 0 1024 1024" fill="none" xmlns="http://www.w3.org/2000/svg">
<g clip-path="url(#clip0_64_122)">
<path d="M0 0H1024V1024H0V0Z" fill="#CA1517"/>
<path d="M372.315 582.205C363.246 582.83 353.678 581.934 345.425 586.391C338.17 586.838 330.869 586.571 323.704 587.731C319.033 590.986 319.119 597.185 317.26 601.956C324.471 601.823 331.684 601.598 338.849 601.33L336.079 606.77L341.978 604.23L341.926 610.114L347.732 610.519L345.374 618.004L350.09 618.363C346.145 644.448 362.016 672.63 390.359 675.573C394.893 696.128 393.261 718.641 379.883 735.807C376.391 736.522 369.499 737.994 366.053 738.707C367.277 740.446 369.771 743.839 370.995 745.532C376.845 745.31 382.695 744.997 388.545 744.729C394.939 719.536 407.09 696.307 417.248 672.496C431.986 691.179 441.875 714.544 438.565 738.622C434.529 741.208 430.533 743.883 426.588 746.558C437.698 754.94 448.631 747.134 458.925 741.561C465.772 724.707 478.15 710.304 481.596 692.156C484.408 681.901 489.17 672.314 494.476 663.084C494.114 676.862 504.042 688.008 504.314 701.607C505.039 716.901 513.883 737.234 496.469 746.643C503.362 748.738 510.481 749.497 517.646 748.203C515.333 738.706 513.524 728.987 513.886 719.177C515.292 700.182 511.571 680.651 519.28 662.503C525.81 664.911 532.385 667.367 539.142 669.106C534.925 663.889 529.62 659.696 524.269 655.638C523.907 647.122 525.677 637.891 521.186 630.132C515.836 620.858 507.262 613.771 502.773 604.006C500.007 598.076 496.154 591.568 488.717 591.211C477.063 587.644 472.526 601.598 466.404 608.108C462.922 601.568 460.141 594.678 458.107 587.553C449.809 586.439 440.742 584.205 432.852 588.174C421.243 602.174 407.591 614.308 395.619 627.997C390.087 627.946 384.552 627.772 379.019 627.638C376.253 612.567 384.327 594.644 372.31 582.204L372.315 582.205ZM465.818 676.064C465.183 697.377 466.911 723.506 446.913 737.506C444.056 717.753 447.412 697.774 447.955 677.932C453.896 677.397 459.877 676.732 465.818 676.064H465.818Z" fill="#CA1517"/>
<path d="M724.959 799.041H732.258V810.535H724.776C722.401 810.535 721.845 809.259 721.845 806.697V802.68C721.84 800.307 722.401 799.041 724.959 799.041ZM762 770.347C762 755.168 755.618 744.582 736.994 744.582H696.482V772.347C698.669 770.699 702.685 770.153 706.161 770.153H729.516C731.886 770.153 732.253 770.898 732.253 773.45V777.661H716.921C698.495 777.661 692.103 788.241 692.103 803.226V809.81C692.103 825.331 698.663 835.942 716.921 835.942H762V770.347ZM662.668 835.942L686.221 744.582H653.936L645.903 803.41L637.498 744.582H603.755L627.105 835.942H662.668ZM557.499 799.041H564.798V810.535H557.321C554.94 810.535 554.405 809.259 554.405 806.697V802.68C554.405 800.307 554.941 799.041 557.499 799.041ZM594.54 770.347C594.54 755.168 588.153 744.582 569.559 744.582H529.042V772.347C531.214 770.699 535.245 770.153 538.701 770.153H562.071C564.436 770.153 564.803 770.898 564.803 773.45V777.661H549.471C531.045 777.661 524.664 788.241 524.664 803.226V809.81C524.664 825.331 531.214 835.942 549.471 835.942H594.545L594.54 770.347ZM477.271 835.942H507.018V708.039H477.271V835.942ZM416.539 744.582V708.039H386.797V835.947H416.539V770.699H424.388C426.575 770.699 426.927 771.628 426.927 774.18V835.947H456.689V770.699C456.689 755.362 450.659 744.582 431.682 744.582H416.539ZM333.884 738.009H363.621V708.039H333.884V738.009ZM333.884 835.942H363.621V744.587H333.884V835.942ZM278.79 807.253H267.286C265.65 807.253 263.83 807.069 262 806.334V835.942H288.097C306.528 835.942 312.731 825.331 312.731 809.989V708.039H281.527V803.787C281.527 806.334 280.783 807.253 278.79 807.253Z" fill="white"/>
<path d="M734.885 410.986C734.885 533.585 635.499 632.971 512.9 632.971C390.3 632.971 290.914 533.585 290.914 410.986C290.914 288.386 390.3 189 512.9 189C635.499 189 734.885 288.386 734.885 410.986Z" fill="#CA1517"/>
<path fill-rule="evenodd" clip-rule="evenodd" d="M734.885 410.986C734.885 533.584 635.5 632.971 512.9 632.971C390.299 632.971 290.914 533.584 290.914 410.986C290.914 288.387 390.299 189 512.9 189C635.5 189 734.885 288.387 734.885 410.986ZM533.795 492.829L536.948 260.753H494.065L497.218 492.829H533.795ZM495.483 577.807C501.054 583.378 507.728 586.163 515.506 586.163C520.762 586.163 525.491 584.902 529.696 582.38C534.005 579.752 537.421 576.283 539.944 571.974C542.571 567.665 543.885 562.935 543.885 557.785C543.885 550.007 541.1 543.332 535.529 537.762C529.958 532.191 523.284 529.406 515.506 529.406C507.728 529.406 501.054 532.191 495.483 537.762C489.913 543.332 487.127 550.007 487.127 557.785C487.127 565.563 489.913 572.237 495.483 577.807Z" fill="white"/>
</g>
<defs>
<clipPath id="clip0_64_122">
<rect width="1024" height="1024" fill="white"/>
</clipPath>
</defs>
</svg>
