<svg width="360" height="270" viewBox="0 0 360 270" fill="none" xmlns="http://www.w3.org/2000/svg">
<rect width="360" height="270" fill="#F5F5F5"/>
<g clip-path="url(#clip0_51_102)">
<path d="M187.852 114.2H172.094V141.453H187.852V114.2Z" fill="#A4A9AD"/>
<path d="M157.294 107.31H141.537V136.396H157.294V107.31Z" fill="#A4A9AD"/>
<path d="M217.256 107.31H201.499V139.403H217.256V107.31Z" fill="#A4A9AD"/>
<path d="M114.085 164.29H71.0166V180.047H114.085V164.29Z" fill="#6F6F6F"/>
<path d="M114.085 186.775H71.0166V202.533H114.085V186.775Z" fill="#6F6F6F"/>
<path d="M114.085 208.685H71.0166V224.442H114.085V208.685Z" fill="#6F6F6F"/>
<path d="M114.087 164.29H92.0691V180.047H114.087V164.29Z" fill="#3E3E42"/>
<path d="M114.087 186.775H92.0691V202.533H114.087V186.775Z" fill="#3E3E42"/>
<path d="M114.087 208.685H92.0691V224.442H114.087V208.685Z" fill="#3E3E42"/>
<path d="M179.98 148.99C179.978 148.99 179.979 148.99 179.976 148.99C158.942 148.99 138.261 145.332 118.513 138.121C115.404 136.985 113.336 134.029 113.336 130.72V99.9336C113.336 97.2583 114.694 94.7661 116.941 93.3148C119.188 91.8635 122.018 91.6518 124.457 92.7527C142.017 100.68 160.69 104.701 179.956 104.7C199.025 104.699 217.524 100.759 234.938 92.9893C237.376 91.9018 240.197 92.1223 242.437 93.5752C244.675 95.028 246.027 97.5155 246.027 100.184V130.933C246.027 134.253 243.947 137.217 240.824 138.344C221.26 145.408 200.786 148.99 179.98 148.99ZM129.094 125.112C145.53 130.502 162.621 133.232 179.976 133.232C179.977 133.232 179.978 133.232 179.98 133.232C197.122 133.232 214.012 130.567 230.27 125.304V111.817C214.124 117.555 197.251 120.456 179.957 120.457C162.46 120.457 145.401 117.488 129.093 111.619L129.094 125.112Z" fill="#A4A9AD"/>
<path d="M77.6262 147.305H64.4005V234.174H77.6262V147.305Z" fill="#6F6F6F"/>
<path d="M77.065 240.787H64.9682C61.3162 240.787 58.3551 237.826 58.3551 234.174C58.3551 230.522 61.3162 227.562 64.9682 227.562H77.0656C80.7176 227.562 83.6786 230.522 83.6786 234.174C83.6786 237.826 80.7171 240.787 77.065 240.787Z" fill="#2F2E41"/>
<path d="M120.695 147.305H107.469V234.174H120.695V147.305Z" fill="#2F2E41"/>
<path d="M120.133 240.787H108.035C104.383 240.787 101.422 237.826 101.422 234.174C101.422 230.522 104.383 227.562 108.035 227.562H120.133C123.785 227.562 126.746 230.522 126.746 234.174C126.746 237.826 123.785 240.787 120.133 240.787Z" fill="#2F2E41"/>
<path d="M53.1125 86.2064V151.817C53.1125 155.001 55.6937 157.582 58.8779 157.582H125.255C128.439 157.582 131.02 155.001 131.02 151.817V86.2064H53.1125ZM92.0665 141.455C81.2429 141.455 72.4684 132.681 72.4684 121.857C72.4684 111.034 81.2429 102.259 92.0665 102.259C102.89 102.259 111.665 111.034 111.665 121.857C111.665 132.681 102.89 141.455 92.0665 141.455Z" fill="#FF355D"/>
<path d="M53.1125 86.2064V151.817C53.1125 155.001 55.6937 157.582 58.8779 157.582H125.255C128.439 157.582 131.02 155.001 131.02 151.817V86.2064H53.1125ZM92.0665 141.455C81.2429 141.455 72.4684 132.681 72.4684 121.857C72.4684 111.034 81.2429 102.259 92.0665 102.259C102.89 102.259 111.665 111.034 111.665 121.857C111.665 132.681 102.89 141.455 92.0665 141.455Z" fill="#CA1517"/>
<path d="M252.5 147.812H239.274V234.174H252.5V147.812Z" fill="#6F6F6F"/>
<path d="M251.933 240.787H239.836C236.184 240.787 233.223 237.826 233.223 234.174C233.223 230.522 236.184 227.562 239.836 227.562H251.933C255.585 227.562 258.546 230.522 258.546 234.174C258.546 237.826 255.585 240.787 251.933 240.787Z" fill="#2F2E41"/>
<path d="M295.562 147.812H282.337V234.174H295.562V147.812Z" fill="#2F2E41"/>
<path d="M295 240.787H282.903C279.251 240.787 276.29 237.826 276.29 234.174C276.29 230.522 279.251 227.562 282.903 227.562H295C298.652 227.562 301.613 230.522 301.613 234.174C301.613 237.826 298.652 240.787 295 240.787Z" fill="#2F2E41"/>
<path d="M227.98 86.2064V151.817C227.98 155.001 230.561 157.582 233.745 157.582H300.123C303.307 157.582 305.888 155.001 305.888 151.817V86.2064H227.98ZM266.934 141.455C256.11 141.455 247.336 132.681 247.336 121.857C247.336 111.034 256.11 102.259 266.934 102.259C277.758 102.259 286.532 111.034 286.532 121.857C286.532 132.681 277.758 141.455 266.934 141.455Z" fill="#CA1517"/>
<path d="M92.0665 86.2064V102.259C102.89 102.259 111.665 111.034 111.665 121.857C111.665 132.681 102.89 141.455 92.0665 141.455V157.582H125.255C128.439 157.582 131.02 155.001 131.02 151.817V86.2064H92.0665Z" fill="#9D2217"/>
<path d="M51.8393 89.7849C49.976 89.7849 48.2779 88.7151 47.4736 87.0335C46.6692 85.3519 46.9022 83.3592 48.0719 81.9084L88.2991 32.0154C89.2178 30.8762 90.6023 30.2137 92.066 30.2137C93.5292 30.2137 94.9148 30.8762 95.833 32.0154L136.06 81.9089C137.23 83.3597 137.462 85.3534 136.658 87.034C135.854 88.7151 134.157 89.7854 132.293 89.7854L51.8393 89.7849Z" fill="#9DCA40"/>
<path d="M136.061 81.9089L95.8335 32.0154C94.9142 30.8762 93.5302 30.2137 92.0665 30.2137V89.7849H132.294C134.157 89.7849 135.855 88.7151 136.66 87.0335C137.463 85.3524 137.23 83.3592 136.061 81.9089Z" fill="#8EB043"/>
<path d="M131.023 89.7828H53.0903V97.0206H131.023V89.7828Z" fill="#9D2217"/>
<path d="M266.934 86.2064V102.259C277.758 102.259 286.532 111.034 286.532 121.857C286.532 132.681 277.758 141.455 266.934 141.455V157.582H300.123C303.307 157.582 305.888 155.001 305.888 151.817V86.2064H266.934Z" fill="#9D2217"/>
<path d="M226.707 89.7849C224.843 89.7849 223.145 88.7151 222.341 87.0335C221.537 85.3519 221.77 83.3592 222.939 81.9084L263.167 32.0154C264.085 30.8762 265.47 30.2137 266.933 30.2137C268.397 30.2137 269.782 30.8762 270.7 32.0154L310.928 81.9089C312.097 83.3597 312.33 85.3534 311.526 87.034C310.722 88.7151 309.023 89.7854 307.16 89.7854L226.707 89.7849Z" fill="#9DCA40"/>
<path d="M310.928 81.9089L270.701 32.0154C269.783 30.8762 268.398 30.2137 266.934 30.2137V89.7849H307.161C309.024 89.7849 310.723 88.7151 311.527 87.0335C312.331 85.3524 312.098 83.3592 310.928 81.9089Z" fill="#8EB043"/>
<path d="M305.9 89.7828H227.968V97.0206H305.9V89.7828Z" fill="#9D2217"/>
</g>
<defs>
<clipPath id="clip0_51_102">
<rect width="265" height="265" fill="white" transform="translate(47 3)"/>
</clipPath>
</defs>
</svg>
