<svg width="360" height="270" viewBox="0 0 360 270" fill="none" xmlns="http://www.w3.org/2000/svg">
<rect width="360" height="270" fill="#F5F5F5"/>
<path d="M172 102H188V231H172V102Z" fill="#D0CDE1"/>
<path d="M172 195H188V231H172V195Z" fill="#CCCCCC"/>
<path d="M172 102H188V118H172V102Z" fill="black"/>
<path d="M199 235V230.921C199 228.758 197.082 227 194.72 227H165.28C162.918 227 161 228.758 161 230.921V235H199Z" fill="#2B3E49"/>
<path d="M206 53C206 38.6436 194.356 27 180 27C165.644 27 154 38.6436 154 53H206Z" fill="#A4A9AD"/>
<path d="M206 53C206 47.8511 204.56 43.0701 202.087 39H157.913C155.44 43.0701 154 47.8511 154 53H206Z" fill="black"/>
<path d="M206 50H154L162.214 102H197.786L206 50Z" fill="#CA1517"/>
<path d="M202.267 79.968H157.708C155.753 79.968 154.164 78.4026 154.164 76.4759C154.164 74.5492 155.753 72.9838 157.708 72.9838H202.267C204.223 72.9838 205.812 74.5492 205.812 76.4759C205.812 78.4026 204.223 79.968 202.267 79.968ZM206.447 57.8354H153.528C149.373 57.8354 146 54.5119 146 50.4177C146 46.3235 149.373 43 153.528 43H206.472C210.627 43 214 46.3235 214 50.4177C214 54.4878 210.627 57.8354 206.447 57.8354ZM198.088 110H161.912C157.757 110 154.384 106.676 154.384 102.582C154.384 98.4881 157.757 95.1646 161.912 95.1646H198.088C202.243 95.1646 205.616 98.4881 205.616 102.582C205.616 106.676 202.243 110 198.088 110Z" fill="#333E48"/>
<path d="M204.834 244C206.013 244 207 243.113 207 242.005V240.608C207 237.505 204.281 235 200.912 235H159.088C155.719 235 153 237.505 153 240.608V242.005C153 243.091 153.963 244 155.166 244H204.834Z" fill="#A4A9AD"/>
<path d="M124.522 96C123.062 96 121.723 95.102 121.212 93.6459C120.555 91.8257 121.528 89.8113 123.354 89.1803L140.293 83.2344C142.118 82.5791 144.138 83.5499 144.771 85.3701C145.428 87.1903 144.455 89.2046 142.629 89.8356L125.69 95.7816C125.325 95.9515 124.911 96 124.522 96ZM141.485 70.8328C141.339 70.8328 141.193 70.8328 141.023 70.8085L119.07 67.9933C117.148 67.7506 115.785 65.979 116.028 64.0617C116.272 62.1444 118.048 60.7854 119.971 61.0281L141.924 63.8433C143.846 64.086 145.209 65.8576 144.966 67.7749C144.747 69.5465 143.213 70.8328 141.485 70.8328ZM235.478 96C235.089 96 234.699 95.9272 234.31 95.8059L217.371 89.8599C215.545 89.2046 214.572 87.2145 215.229 85.3944C215.886 83.5742 217.882 82.6034 219.707 83.2587L236.646 89.2046C238.472 89.8599 239.445 91.85 238.788 93.6702C238.277 95.102 236.914 96 235.478 96ZM218.515 70.8328C216.762 70.8328 215.253 69.5465 215.034 67.7749C214.791 65.8576 216.154 64.086 218.076 63.8433L240.029 61.0281C241.952 60.7854 243.728 62.1444 243.972 64.0617C244.215 65.979 242.852 67.7506 240.93 67.9933L218.977 70.8085C218.831 70.8328 218.685 70.8328 218.515 70.8328Z" fill="#CA1517"/>
</svg>
