<svg width="360" height="270" viewBox="0 0 360 270" fill="none" xmlns="http://www.w3.org/2000/svg">
<rect width="360" height="270" fill="#F5F5F5"/>
<g clip-path="url(#clip0_51_76)">
<path d="M211.488 229.037C210.465 231.424 208.164 233 205.565 233H154.435C151.835 233 149.535 231.424 148.512 229.037C147.532 226.651 148.086 223.924 149.918 222.092C156.949 215.062 160.826 205.688 160.826 195.76V164.826C160.826 161.29 163.681 158.435 167.218 158.435L192.783 158.52C196.319 158.52 199.174 161.375 199.174 164.911V195.76C199.174 205.688 203.052 215.062 210.082 222.092C211.914 223.924 212.468 226.651 211.488 229.037Z" fill="#D0CDE1"/>
<path d="M211.488 229.038C210.465 231.424 208.164 233 205.565 233H180V158.478L192.782 158.52C196.319 158.52 199.174 161.375 199.174 164.911V195.76C199.174 205.688 203.051 215.062 210.082 222.092C211.914 223.924 212.468 226.651 211.488 229.038Z" fill="#575A89"/>
<path d="M256.653 99.3364C256.184 88.0879 249.835 77.0521 239.609 69.8086C232.11 64.525 224.398 62.1389 216.132 62.6504C210.849 47.4818 196.49 37 180 37C163.51 37 149.151 47.4818 143.868 62.6504C135.261 62.1389 127.464 64.8236 120.39 69.8086C110.164 77.0521 103.816 88.0879 103.347 99.3364C102.963 108.923 106.201 118.212 112.337 125.541C108.929 134.147 108.801 143.309 111.996 152.213C116.47 164.612 127.037 173.986 139.564 176.671C152.858 179.569 166.365 175.521 175.654 165.891C176.847 164.655 178.424 164.101 180 164.144C181.321 164.186 182.642 164.697 183.707 165.678C194.529 176.032 207.695 179.44 220.478 176.671C232.963 173.986 243.53 164.612 248.004 152.213C251.241 143.222 250.944 133.849 247.705 125.455C253.841 118.17 257.036 108.881 256.653 99.3364Z" fill="#9DCA40"/>
<path d="M247.705 125.456C250.944 133.85 251.242 143.224 248.004 152.214C243.53 164.613 232.963 173.987 220.478 176.672C207.696 179.441 194.53 176.033 183.707 165.679C182.641 164.699 181.321 164.187 180 164.145V37C196.49 37 210.849 47.4818 216.132 62.6504C224.398 62.1389 232.11 64.525 239.61 69.8086C249.836 77.0521 256.184 88.0879 256.653 99.3364C257.036 108.881 253.841 118.17 247.705 125.456Z" fill="#8EB043"/>
</g>
<path d="M78 230C78 224.477 82.4772 220 88 220H272C277.523 220 282 224.477 282 230V233H78V230Z" fill="#2F2E41"/>
<circle cx="288.5" cy="47.5" r="22.5" fill="#CA1517"/>
<defs>
<clipPath id="clip0_51_76">
<rect width="196" height="196" fill="white" transform="translate(82 37)"/>
</clipPath>
</defs>
</svg>
