<svg width="360" height="270" viewBox="0 0 360 270" fill="none" xmlns="http://www.w3.org/2000/svg">
<rect width="360" height="270" fill="#F5F5F5"/>
<path opacity="0.4" fill-rule="evenodd" clip-rule="evenodd" d="M252.107 143.394C245.055 146.105 237.395 147.59 229.389 147.59C194.409 147.59 166.053 119.234 166.053 84.2552C166.053 77.5339 167.1 71.0572 169.04 64.9792L123.027 64.9792C99.276 64.9792 80 84.1691 80 107.834V159.294V167.899C80 191.564 99.276 210.754 123.027 210.754H135.935C138.258 210.754 141.356 212.303 142.819 214.196L155.727 231.32C161.407 238.893 170.7 238.893 176.38 231.32L189.288 214.196C190.923 212.045 193.504 210.754 196.172 210.754H209.08C232.831 210.754 252.107 191.564 252.107 167.899V143.394Z" fill="#A4A9AD"/>
<path d="M165.709 177.193C160.89 177.193 157.104 173.32 157.104 168.588C157.104 163.855 160.976 159.982 165.709 159.982C170.442 159.982 174.315 163.855 174.315 168.588C174.315 173.32 170.528 177.193 165.709 177.193Z" fill="#CA1517"/>
<path d="M200.131 177.193C195.312 177.193 191.525 173.32 191.525 168.588C191.525 163.855 195.398 159.982 200.131 159.982C204.864 159.982 208.736 163.855 208.736 168.588C208.736 173.32 204.95 177.193 200.131 177.193Z" fill="#CA1517"/>
<path d="M131.288 177.193C126.469 177.193 122.682 173.32 122.682 168.588C122.682 163.855 126.555 159.982 131.288 159.982C136.021 159.982 139.893 163.855 139.893 168.588C139.893 173.32 136.107 177.193 131.288 177.193Z" fill="#CA1517"/>
<path d="M230.077 134.51C257.833 134.51 280.332 112.01 280.332 84.2552C280.332 56.5001 257.833 34 230.077 34C202.322 34 179.822 56.5001 179.822 84.2552C179.822 112.01 202.322 134.51 230.077 134.51Z" fill="#CA1517"/>
<path d="M234 49.1818L233.318 99.3636H225.409L224.727 49.1818H234ZM229.364 119.545C227.682 119.545 226.239 118.943 225.034 117.739C223.83 116.534 223.227 115.091 223.227 113.409C223.227 111.727 223.83 110.284 225.034 109.08C226.239 107.875 227.682 107.273 229.364 107.273C231.045 107.273 232.489 107.875 233.693 109.08C234.898 110.284 235.5 111.727 235.5 113.409C235.5 114.523 235.216 115.545 234.648 116.477C234.102 117.409 233.364 118.159 232.432 118.727C231.523 119.273 230.5 119.545 229.364 119.545Z" fill="#2F2E41"/>
</svg>
