<svg width="360" height="270" viewBox="0 0 360 270" fill="none" xmlns="http://www.w3.org/2000/svg">
<rect width="360" height="270" fill="#F5F5F5"/>
<path d="M179.191 207H79.8091L79.4983 201.793C79.219 197.118 72.6576 87.1807 72.2203 75.7532L72 70H187L186.78 75.7532C186.342 87.1807 179.781 197.118 179.502 201.793L179.191 207Z" fill="#A4A9AD"/>
<path d="M179.47 206.543H129.5L129.505 69.8197H187.323L187.101 75.5613C186.661 86.9657 180.063 196.681 179.782 201.346L179.47 206.543Z" fill="#6F6F6F"/>
<path d="M135.028 92.6136H123.971V185.342H135.028V92.6136Z" fill="#6F6F6F"/>
<path d="M135 93H129V185H135V93Z" fill="#333E48"/>
<path d="M95.3962 93.0496L100.226 185.622L111.267 185.046L106.437 92.4736L95.3962 93.0496Z" fill="#6F6F6F"/>
<path d="M147.738 185.045L158.779 185.621L163.609 93.0482L152.568 92.4722L147.738 185.045Z" fill="#333E48"/>
<path d="M120.794 58L110 57.999L110.002 37H149V57.9993H138.206V48.4541H120.795L120.794 58Z" fill="#888C8F"/>
<path d="M129.505 37H149.476V57.2713H138.419V48.057H129.5L129.505 37Z" fill="#333E48"/>
<path d="M194 80.8767H65V51.7429H194L194 80.8767Z" fill="#888C8F"/>
<path d="M194 81H129V52H194V81Z" fill="#333E48"/>
<path d="M277.606 162.113C276.564 162.715 274.849 163.921 273.829 164.825C272.787 165.706 271.42 166.772 270.771 167.19C267.434 169.322 260.807 170.667 253.438 170.76C251.098 170.783 250.472 170.69 248.34 170.064C245.189 169.16 241.134 167.769 237.195 166.309C234.321 165.219 233.974 165.15 233.139 165.381C231.633 165.775 231.1 166.587 229.617 170.62C227.509 176.346 225.47 180.125 222.457 183.88C218.912 188.331 213.721 192.527 207.928 195.657C203.92 197.836 203.989 199.157 208.369 203.539C211.196 206.367 213.212 207.827 216.409 209.334C220.534 211.258 224.311 212 230.15 212C234.46 212 237.403 211.722 245.166 210.516C253.369 209.241 254.504 209.125 258.42 209.125C262.452 209.125 264.816 209.496 266.507 210.4C268.778 211.606 271.049 210.54 271.049 208.268C271.049 207.433 270.516 206.32 270.006 206.135C269.519 205.926 269.589 205.161 270.191 203.655C272.161 198.856 279.692 191.09 291.44 181.748C293.549 180.055 295.403 178.525 295.565 178.317C296.121 177.645 296.144 176.254 295.634 175.419C294.777 174.098 294.128 174.028 289.355 174.77L287.385 175.071L286.713 174.469C285.137 173.031 283.469 170.018 281.94 165.868C281.036 163.411 279.901 161 279.622 161C279.553 161 278.649 161.487 277.606 162.113Z" fill="#CA1517"/>
<path d="M238.779 209.967C238.779 209.967 237.024 170.253 212.199 158.702C214.021 155.927 215.776 153.108 217.439 150.237C219.627 146.457 221.674 142.535 223.126 138.406C224.379 134.842 224.271 128.993 220.878 126.485C217.931 124.307 213.616 124.947 210.33 125.755C207.631 126.418 205.053 127.505 202.488 128.559C200.696 129.297 198.877 130.003 197.019 130.557C195.033 131.149 193.445 131.637 190.908 130.237C190.247 129.872 189.589 129.506 188.911 129.175C186.847 128.165 184.789 127.537 182.472 127.546C178.26 127.56 173.969 129.831 171.942 133.575C170.156 136.874 170.559 140.033 171.999 143.278C174.078 147.965 177.895 152.088 181.197 155.937C181.903 156.759 182.617 157.575 183.338 158.385C157.844 169.507 156.055 209.967 156.055 209.967C156.055 209.967 152.746 245.432 197.417 245.432C244.525 245.432 238.779 209.967 238.779 209.967Z" fill="#2F2E41"/>
</svg>
